<?xml version="1.0" encoding="UTF-8"?>
<svg id="Layer_2" data-name="Layer 2" xmlns="http://www.w3.org/2000/svg" viewBox="0 0 82.26 123.63">
  <defs>
    <style>
      .cls-1 {
        fill: #756a84;
      }

      .cls-1, .cls-2, .cls-3, .cls-4, .cls-5 {
        stroke: #1a1a1a;
        stroke-miterlimit: 10;
        stroke-width: 1.5px;
      }

      .cls-2 {
        fill: #5f6680;
      }

      .cls-3 {
        fill: none;
      }

      .cls-4 {
        fill: #7f965d;
      }

      .cls-5 {
        fill: #70776e;
      }
    </style>
  </defs>
  <g id="Layer_3" data-name="Layer 3">
    <g>
      <path class="cls-4" d="m1.09,40.25c-.18-.4-.35-.81-.33-1.25s.26-.89.69-1.02c.41-.12.84.08,1.2.3.86.53,1.62,1.21,2.23,2.01-1.1-3.16-3.2-6.15-3.04-9.48,0-.2.03-.41.18-.55.17-.17.45-.18.69-.16,2.2.17,4.15,1.56,5.47,3.27s2.1,3.76,2.85,5.77c-.4-1.66.63-3.4,2.09-4.35s3.25-1.27,5-1.45c.26-.03.53-.05.75.09.14.08.24.22.31.36.33.67.11,1.49-.28,2.13s-.92,1.21-1.25,1.88c-.53,1.05-.52,2.27-.51,3.44.02,1.48.04,2.96.06,4.43.01.76.02,1.55-.3,2.25-.57,1.28-2.06,1.95-3.48,2.13s-2.87-.04-4.31.03c-.93.05-2.3.33-3.03-.41-.53-.55-.67-1.59-1.07-2.25-1.43-2.35-2.82-4.67-3.93-7.19Z"/>
      <path class="cls-5" d="m12.67,44.61c.66-2.78,2.26-5.25,3.84-7.66,1.24-1.9,2.87-4.01,5.19-4.06,1.01-.02,2.15.33,2.94-.27.59-.44.72-1.24.78-1.96.18-1.93.21-3.88.08-5.81-.04-.59-.08-1.21.22-1.72.46-.78,1.55-.99,2.47-.86,1.61.23,3.07,1.27,3.77,2.7-.1-1.35,1.03-2.6,2.37-2.99s2.81-.09,4.09.49c2.39,1.08,4.3,3.12,5.17,5.53,2.6-2.26,6.29-3.48,9.7-2.72s6.32,3.71,6.45,7.09c3.38-.5,6.95.37,9.67,2.37.46.34.91.71,1.47.84.55.13,1.12,0,1.68-.03,1.42-.1,2.87.35,3.96,1.22.23.19.46.41.52.69.13.63-.56,1.1-1.1,1.48-1.71,1.2-2.62,3.16-3.71,4.91-1.93,3.09-4.63,5.67-7.58,7.88-7.27,5.43-16.14,8.61-25.18,10.16-3.77.64-7.7,1.01-11.38-.02-3.49-.98-6.52-3.17-8.88-5.84-.84-.95-1.63-1.97-2.66-2.74-.81-.6-1.92-.72-2.61-1.4-1.76-1.73-1.78-5.08-1.27-7.26Z"/>
      <path class="cls-4" d="m27.08,48.55c-.39.31-.86.56-1.37.58s-1.04-.21-1.27-.65c-.26-.5-.08-1.13.3-1.55s.91-.68,1.43-.92c-1.14-.25-2.34-.63-3.03-1.53-.8-1.04-.62-2.66.38-3.52s2.68-.83,3.66.05c-.65-1.08-.94-2.36-.81-3.61.04-.43.15-.9.49-1.19.44-.39,1.16-.34,1.65-.02s.78.87.95,1.42c.33,1.05.27,2.21-.16,3.23,1-.58,2.23-.63,3.4-.65.75-.02,1.56-.01,2.14.45.89.7.69,2.17-.14,2.93s-2.05.96-3.2.97c-.09.27.24.48.51.6,1.59.76,2.48,2.66,2.02,4.32-1.12.39-2.42.28-3.45-.3-.82-.46-1.12-1.55-1.81-1.95-.8-.47-1.07.83-1.69,1.33Z"/>
      <path class="cls-4" d="m40.33,47.52c-.08-.48-.06-.99.15-1.43.34-.7,1.13-1.12,1.92-1.24s1.6.02,2.39.15c-.48-1.08-.93-2.16-1.36-3.26-.17-.44-.31-.99.04-1.31.15-.13.35-.19.55-.23,1.42-.24,2.86.49,3.81,1.54s1.5,2.37,2.04,3.66c-.08-3.5,1.74-7.21,5.06-8.6.48-.2,1.01-.36,1.53-.3s1.04.37,1.21.85c.11.33.05.69-.03,1.04-.32,1.35-.92,2.64-1.75,3.77.41-1.42,1.78-2.39,3.19-2.94.9-.35,1.91-.57,2.84-.29s1.68,1.22,1.46,2.13c-.21.86-1.12,1.34-1.77,1.96-1.61,1.56-1.56,4.04-1.51,6.25,0,.33,0,.68-.15.98-.19.34-.55.56-.91.74-2.9,1.52-6.13,2.46-9.41,2.76-.8.07-1.63.1-2.4-.11-1.55-.44-3.22-1.67-4.49-2.62-1.12-.85-2.17-2.09-2.39-3.48Z"/>
      <path class="cls-4" d="m27.94,13.88c-.13-.14-.26-.29-.32-.47-.14-.42.15-.86.47-1.17,1.44-1.35,3.79-1.42,5.61-.63s3.21,2.29,4.41,3.84c1.67,2.16,3.09,4.51,4.21,6.98,4.48-2.15,9.83-2.54,14.59-1.06.56.17,1.14.39,1.5.84.7.86.23,2.22-.68,2.88s-2.1.8-3.23.92c-4.75.5-9.67,1.42-14.45,1.52-1.64.03-2.46-2.6-3.33-3.81-1.21-1.66-2.57-3.22-3.97-4.73-1.59-1.72-3.23-3.38-4.8-5.11Z"/>
      <path class="cls-4" d="m43.33,13.04c.36-1.68,1.51-3.09,2.63-4.43,1.92-2.3,3.85-4.62,6.12-6.6.69-.6,1.48-1.2,2.4-1.26.2-.01.42,0,.57.13.2.16.22.45.21.7-.04,1.61-.64,3.15-1.24,4.66-.73,1.83-1.46,3.68-2.52,5.35-.61.96-1.33,1.86-2.04,2.75-.63.79-3.49,5.34-4.53,5.04-.7-.2-1.16-2.21-1.35-2.82-.34-1.14-.5-2.34-.25-3.51Z"/>
      <path class="cls-4" d="m36.46,31.46c-3.15-2.5-7.09-4.07-11.15-4.45.46,2.75,2.36,5.11,4.66,6.77s5,2.73,7.67,3.77c-.2.03-.18.35,0,.44s.39.03.58-.03c1.04-.33,2.09-.67,3.13-1,3.72-1.19,7.46-2.38,10.99-4.02.42-.2.86-.41,1.12-.79s.28-.95-.08-1.23c-.22-.17-.52-.19-.8-.19-.69,0-1.37.15-2.04.29-1.26.26-2.51.53-3.77.79-1.11.23-2.23.47-3.25.95-1.23.58-3.74,2.98-5.23,2.49-.73-.24-.41-.8-.43-1.43-.04-1.02-.58-1.74-1.38-2.38Z"/>
      <path class="cls-4" d="m19.22,28.56c-.49-.72-1.09-1.38-1.72-2-3.98-3.9-9.24-6.27-14.41-8.49.3,2.28,1.53,4.33,2.79,6.28,2.64,4.11,5.56,8.19,9.62,11.02,1.11.77,2.29,1.44,3.48,2.11.52.29,3.69,2.52,4.14,2.26.58-.33-.83-2.84-1.01-3.36-.87-2.63-1.28-5.48-2.88-7.83Z"/>
      <path class="cls-4" d="m17.75,22.83c-.09-.5-.06-1.01-.02-1.52.28-3.18,1.11-6.31,2.43-9.26.39.1.62.46.78.79,1.16,2.39,1.13,5.06,1.07,7.64-.03,1.12.25,4.3-1.06,4.95-1.47.73-3.02-1.64-3.2-2.6Z"/>
      <path class="cls-4" d="m57.13,28.55c-.12-.6-.04-1.44.58-1.53.24-.03.48.08.7.2,1.59.93,2.64,2.66,2.7,4.45.32-3.14,2-6.13,4.56-8.08.22-.17.55-.33.75-.14.12.11.13.28.13.44.03,2.44-.39,4.88-1.22,7.18,1.73-1.77,3.48-3.56,5.56-4.94s4.54-2.35,7.06-2.27c.28,0,.59.04.79.24.21.22.21.55.19.84-.24,3.33-1.53,6.57-3.66,9.2-.36.44-.82.9-1.39.88,2.01-.69,4.36-.4,6.12.77.25.16.5.38.52.67,0,.19-.09.36-.19.52-.76,1.19-1.78,2.23-2.97,3.02-.79.52-1.66.94-2.43,1.49-1.36.97-2.4,2.32-3.16,3.78-.12.23-.24.47-.46.61-.29.18-.67.11-1.01.04-1.89-.4-3.78-.79-5.67-1.19-.59-.12-1.19-.25-1.72-.53-1.12-.58-1.78-1.76-2.1-2.95s-.33-2.43-.5-3.65c-.46-3.23-2.51-5.85-3.16-9.06Z"/>
      <path class="cls-1" d="m40.23,55.28c-.02-.31-.17-.6-.4-.81-.15-.13-.33-.23-.53-.29-12.18-3.56-24.36-7.13-36.55-10.7-.9-.27-1.81.36-1.77,1.22,1.02,21.55,2.04,43.09,3.05,64.64.02.49.37.93.89,1.1,12.44,4.13,24.87,8.26,37.31,12.38.69.23,1.41-.08,1.69-.63.09-.17.14-.37.13-.58-1.27-22.11-2.54-44.21-3.81-66.32Zm-22.89,18.77c-.2-2.97-.4-5.95-.59-8.92-.06-.87.95-1.48,1.81-1.08,5.92,2.77,8.82,6.46,7.98,8.52-.69,1.71-4.05,2.55-7.96,2.54-.66,0-1.2-.47-1.24-1.07Zm10.44,24.76c-.69,1.71-4.05,2.55-7.96,2.54-.66,0-1.2-.47-1.23-1.07-.2-2.97-.4-5.95-.6-8.92-.06-.87.95-1.48,1.81-1.08,5.92,2.77,8.82,6.46,7.98,8.52Z"/>
      <path class="cls-2" d="m62.08,89.95c6.47-2.67,12.94-5.34,19.41-8.01h0c-.77-13.51-1.54-27.02-2.31-40.53-.05-.84-1-1.39-1.86-1.07l-36.73,13.44c-.35.13-.62.38-.75.69-.07.16-.1.33-.09.51,1.23,22.11,2.45,44.21,3.68,66.31.02.37.22.68.5.89.39.29.94.38,1.44.16,5.58-2.42,11.16-4.85,16.74-7.27-.36-7.85-.72-15.71-1.09-23.57-.03-.65.39-1.26,1.06-1.54Zm-2.63-16.33c-.21-2.61-.41-5.23-.62-7.84-.03-.37.15-.74.47-.97,3.17-2.32,6.42-2.87,7.82-1.76,1.81,1.43.17,5.36,0,5.75-1.26,3.02-3.93,4.79-5.83,5.73-.8.39-1.78-.09-1.84-.91Z"/>
      <path class="cls-3" d="m44.56,19.16c-3.33,4.73-5.79,10.1-6.61,15.76s.04,11.63,2.94,16.62c.34.59.75,1.19,1.38,1.49"/>
    </g>
  </g>
</svg>